<svg version="1.1" id="Layer_1" xmlns="http://www.w3.org/2000/svg" xmlns:xlink="http://www.w3.org/1999/xlink" x="0px" y="0px"
	 width="100%" viewBox="0 0 736 176" enable-background="new 0 0 736 176" xml:space="preserve">
<path fill="#000000" opacity="1.000000" stroke="none" 
	d="
M534.000000,177.000000 
	C357.548218,177.000000 181.596405,176.978989 5.644745,177.124496 
	C1.368789,177.128036 0.890710,175.985214 0.900701,172.146988 
	C1.045561,116.495949 1.050161,60.844265 0.888563,5.193316 
	C0.877642,1.432389 1.851361,0.914680 5.304710,0.915996 
	C247.738251,1.008390 490.171844,1.005799 732.605408,0.937596 
	C735.815369,0.936693 737.143066,1.090857 737.129395,5.103498 
	C736.938477,61.087505 736.955994,117.072495 737.104004,173.056763 
	C737.113403,176.595230 736.247192,177.093948 732.944946,177.088058 
	C666.796814,176.970230 600.648376,177.000000 534.000000,177.000000 
z"/>
<path fill="#FF4E9F" opacity="1.000000" stroke="none" 
	d="
M123.878784,100.428513 
	C123.252861,103.772858 126.125854,104.807480 127.355713,106.400055 
	C133.157898,113.913513 139.875946,120.723373 145.625229,128.273148 
	C153.356552,138.425644 168.702393,137.443359 175.014893,124.322937 
	C175.773849,123.313538 176.001526,122.504837 175.912964,121.279556 
	C175.922333,119.284935 175.957977,117.613449 175.972229,115.524452 
	C175.665329,110.182976 173.491592,106.315804 169.177109,103.275963 
	C168.903122,103.058525 168.973740,103.024208 168.956696,103.059578 
	C167.998154,100.770523 166.722443,98.714310 164.166107,97.266670 
	C163.903122,97.058525 163.973740,97.024208 163.956696,97.059578 
	C162.998154,94.770523 161.722443,92.714310 159.166107,91.266670 
	C158.903122,91.058525 158.973740,91.024208 158.956696,91.059578 
	C157.998154,88.770523 156.722443,86.714310 154.166107,85.266670 
	C153.903122,85.058525 153.973740,85.024208 153.956696,85.059578 
	C152.998169,82.770515 151.722427,80.714317 149.166107,79.266678 
	C148.903122,79.058533 148.973770,79.024139 148.956696,79.059525 
	C148.045441,77.719475 147.959030,76.001877 146.967743,74.294952 
	C148.604477,67.773079 149.413620,61.494633 149.026871,55.063358 
	C148.918655,53.263893 149.062408,51.458309 148.106659,49.423134 
	C148.630447,48.418797 149.011429,47.766151 149.980728,47.207188 
	C156.392975,54.401978 162.603882,61.577686 168.462921,69.030045 
	C176.827164,79.668869 187.496460,88.701202 193.366211,101.053848 
	C203.843918,123.103722 193.642075,150.932083 167.092041,156.571762 
	C152.798737,159.607895 139.274292,155.739487 129.481735,143.118607 
	C122.556396,134.193100 114.958847,125.789154 107.023422,117.041153 
	C105.946175,116.912811 105.527931,116.808128 104.835945,116.483383 
	C104.358223,116.227226 104.172401,116.115486 103.736023,115.798721 
	C103.181564,115.295906 102.893356,114.983749 102.421295,114.416946 
	C101.865120,113.676941 101.514847,113.171730 100.884018,112.494102 
	C100.309395,111.776909 100.033173,111.223740 99.374939,110.564995 
	C98.997032,110.192642 98.854149,110.032242 98.524063,109.604568 
	C98.119949,108.953178 97.947090,108.549881 97.734756,107.805916 
	C97.625053,107.034401 97.664795,106.594109 97.945808,105.873520 
	C90.217171,95.434486 80.157600,86.875656 74.585281,75.023148 
	C65.950722,56.657169 73.682701,34.617718 90.354561,24.892599 
	C107.314247,14.999585 128.637802,19.433496 139.980591,34.767586 
	C149.871307,48.138649 151.246948,64.258446 141.652603,79.892120 
	C138.292801,85.366806 134.069656,90.110023 129.423965,94.911926 
	C127.830864,96.004807 126.877373,97.347061 125.017342,98.476013 
	C124.540535,98.756058 124.211510,99.129929 124.107506,99.341461 
	C124.003502,99.552986 123.860275,99.983650 123.878784,100.428513 
z"/>
<path fill="#FF4E9F" opacity="1.000000" stroke="none" 
	d="
M293.566833,125.777832 
	C280.076874,131.896271 266.998322,133.232941 254.677368,124.192467 
	C242.961868,115.596245 243.017700,96.395966 256.039337,88.076920 
	C261.569214,84.544090 267.819550,82.803894 274.570923,82.952461 
	C283.393768,83.146599 292.229126,82.828468 301.048737,83.086060 
	C304.476501,83.186180 305.165527,81.999489 305.068176,78.867805 
	C304.841064,71.564835 300.541992,65.585274 293.006500,63.556835 
	C284.827789,61.355247 276.886871,61.365753 270.409821,68.079910 
	C269.021606,69.518944 267.917694,71.144791 268.004578,73.281227 
	C268.164062,77.204781 266.133850,78.424347 262.479034,78.041130 
	C260.337463,77.816574 258.153046,78.000259 255.987915,78.000198 
	C248.631638,77.999969 247.236221,76.158226 249.489105,69.023277 
	C253.851730,55.206696 263.484467,48.742817 277.197998,47.244007 
	C288.021759,46.061047 299.194580,45.905529 309.273956,51.997635 
	C318.237915,57.415546 323.380249,65.490616 323.813751,75.555092 
	C324.508301,91.680450 323.897491,107.858810 324.083008,124.011963 
	C324.121826,127.391953 323.057007,128.315033 319.883331,128.045364 
	C315.109100,127.639679 309.010864,129.934250 305.880341,127.200043 
	C302.924011,124.617958 305.499695,118.409637 304.770020,113.287132 
	C301.337006,117.872574 298.354706,122.418121 293.566833,125.777832 
z"/>
<path fill="#FF4E9F" opacity="1.000000" stroke="none" 
	d="
M473.086731,74.341812 
	C472.540466,62.648174 480.568298,52.781967 491.723480,49.376648 
	C504.855286,45.367950 518.502869,44.812042 531.395630,51.164436 
	C542.408020,56.590359 547.377747,66.351013 547.848267,77.984894 
	C548.466309,93.268867 547.913147,108.597588 548.070923,123.904930 
	C548.103699,127.086136 547.365662,128.320251 543.996033,128.066650 
	C539.216187,127.706940 532.962219,129.600647 529.995911,127.219971 
	C526.857483,124.701202 529.402527,118.189522 528.979492,113.443207 
	C528.950073,113.112732 528.883301,112.785591 528.438232,112.285667 
	C526.244080,110.913338 526.142090,109.314774 526.929810,107.482826 
	C527.586914,105.954567 527.781189,104.396973 526.947998,102.460892 
	C526.529724,100.146439 525.823547,98.429581 523.521973,98.428650 
	C514.908752,98.425163 506.267853,97.469666 497.695343,99.072960 
	C494.277496,99.712196 491.707031,101.328423 491.565979,105.158760 
	C491.415588,109.241524 494.199646,111.202805 497.601166,112.014526 
	C503.696960,113.469193 509.801636,113.065071 515.736084,110.943695 
	C517.449524,110.331192 519.059143,109.394333 521.347290,109.473923 
	C526.629456,111.829849 526.629456,111.829849 524.145996,118.640335 
	C516.700256,128.512604 506.773346,130.926453 495.235291,130.133270 
	C486.798676,129.553284 479.029419,127.507111 474.307861,120.408524 
	C464.673584,105.923866 470.728607,89.486488 488.479797,83.990746 
	C492.184479,82.843796 495.937073,83.011604 499.703247,83.004570 
	C507.690308,82.989647 515.677429,83.002266 523.664490,82.999252 
	C529.206299,82.997154 530.233704,81.661957 528.727844,76.319733 
	C526.782654,69.418800 522.736511,64.543716 515.440125,63.029369 
	C505.984589,61.066910 497.611359,62.329842 491.910126,71.651413 
	C488.538940,77.870209 479.528656,79.193626 473.086731,74.341812 
z"/>
<path fill="#FF4E9F" opacity="1.000000" stroke="none" 
	d="
M677.299805,128.624481 
	C664.099182,132.910858 644.908508,129.393814 640.208557,115.061035 
	C635.643799,101.140366 641.579163,87.939209 657.527283,84.122993 
	C668.748962,81.437775 680.316833,83.395363 691.723206,83.040146 
	C698.723022,82.822166 698.079285,83.079422 697.198364,75.962204 
	C695.926514,65.686447 682.453308,61.111046 674.628784,62.546741 
	C666.384033,64.059532 660.418884,67.032707 660.002014,76.351593 
	C659.902466,78.575912 658.289490,77.956299 657.120239,77.974289 
	C652.956726,78.038345 648.760437,77.682976 644.636047,78.089775 
	C640.580444,78.489792 640.520996,76.115761 641.067932,73.577965 
	C644.162598,59.217548 649.518555,52.030071 664.598328,48.232452 
	C675.598755,45.462147 687.133118,45.559887 697.937561,50.097691 
	C708.276245,54.439938 714.468201,62.354946 715.986206,73.597931 
	C718.286194,90.632103 716.381470,107.760475 717.028198,124.832687 
	C717.113342,127.080933 716.612549,128.398453 714.063232,128.001862 
	C713.900635,127.976570 713.730469,128.001801 713.563965,127.998970 
	C708.588013,127.914444 702.115295,129.694092 699.047424,127.231750 
	C695.833679,124.652298 698.369324,117.891029 697.940613,112.513062 
	C697.228333,109.727722 698.106506,106.896736 695.468872,104.845062 
	C694.532288,98.301834 694.529663,98.166237 687.971497,98.294243 
	C681.023682,98.429848 674.037292,97.560265 667.130493,98.978020 
	C663.457825,99.731918 660.343506,101.073212 660.505737,105.606560 
	C660.661926,109.969299 663.764832,111.522179 667.362000,112.278175 
	C672.974792,113.457779 678.584167,112.390190 684.571411,111.938629 
	C686.560059,112.501419 688.118408,112.397232 689.774231,112.003601 
	C692.714294,111.304672 694.156738,112.598351 693.804749,116.028725 
	C689.929565,122.533920 683.990723,125.777763 677.299805,128.624481 
z"/>
<path fill="#FF4E9F" opacity="1.000000" stroke="none" 
	d="
M102.241028,110.888000 
	C102.952370,111.375114 103.330055,111.766624 103.862061,112.291824 
	C104.222443,113.122444 104.499748,113.799034 104.839325,114.808212 
	C105.063988,115.094452 104.997490,115.006462 104.964096,114.962578 
	C105.427872,115.553383 105.810326,116.295265 106.830536,116.847122 
	C107.085213,117.015106 107.046616,116.941460 107.039902,116.900436 
	C105.463074,117.549278 107.195366,118.323853 107.047180,119.504196 
	C106.602615,121.185242 105.842239,122.292603 105.218430,123.832169 
	C100.713478,130.706223 95.030807,136.201202 90.218307,142.388199 
	C84.816032,149.333374 78.118271,154.166260 69.566803,156.062408 
	C54.673412,159.364746 39.147362,155.933960 29.642109,142.123337 
	C17.804003,124.923187 18.739359,107.649605 32.107929,91.403496 
	C43.442326,77.629433 54.879963,63.940323 66.583023,50.081734 
	C69.205841,49.261574 68.717346,51.454353 69.630875,52.706566 
	C70.181732,60.306301 69.680626,67.620453 72.727921,74.710495 
	C73.934784,77.518471 70.219315,79.736450 68.473068,81.896278 
	C61.382675,90.665932 53.863548,99.088455 46.752407,107.841980 
	C41.331322,114.515137 42.441956,125.962173 48.767017,131.228470 
	C55.155506,136.547577 65.970177,136.778564 71.680656,129.885895 
	C78.050034,122.197914 84.725037,114.763153 91.576065,107.088074 
	C92.735413,106.329323 93.406166,105.469612 94.695038,104.923065 
	C95.474075,105.134995 95.947510,105.435944 97.267456,105.661766 
	C98.345406,105.807411 98.576851,106.028175 98.912338,106.337234 
	C99.222443,107.122444 99.499748,107.799034 99.839325,108.808212 
	C100.063988,109.094452 99.997238,109.005432 99.963722,108.961029 
	C100.499062,109.636963 100.956055,110.475197 102.241028,110.888000 
z"/>
<path fill="#FF4E9F" opacity="1.000000" stroke="none" 
	d="
M557.000000,122.871384 
	C557.000000,99.734818 557.162720,77.084221 556.868958,54.439556 
	C556.806824,49.650513 558.333496,48.497761 562.665771,48.934139 
	C565.963013,49.266262 569.329224,49.149319 572.648254,48.952747 
	C575.211670,48.800934 576.184631,49.539516 576.058655,52.254139 
	C575.842834,56.901730 575.999023,61.566582 575.999023,67.387459 
	C580.163391,57.378609 585.720093,49.782871 595.802307,47.801540 
	C611.143738,44.786678 622.356445,47.722225 628.941956,64.368301 
	C631.234680,70.163719 632.074829,76.292892 632.030090,82.569908 
	C631.932678,96.224915 631.831299,109.884499 632.106567,123.534645 
	C632.185364,127.445137 630.960449,128.399231 627.358765,128.065018 
	C624.056580,127.758575 620.683105,127.770119 617.378540,128.063522 
	C613.964844,128.366608 612.847229,127.393044 612.908020,123.772507 
	C613.137207,110.120659 612.952942,96.462364 613.035156,82.807159 
	C613.054260,79.642197 612.282043,76.701546 611.290955,73.784523 
	C608.366394,65.176880 603.372925,63.300369 594.691406,63.146992 
	C587.849060,63.026115 579.322449,67.989082 577.755127,75.489716 
	C576.990112,79.150917 575.952637,82.683876 575.973816,86.481621 
	C576.043396,98.971207 575.885864,111.463165 576.077148,123.950211 
	C576.127258,127.221458 575.228394,128.329849 571.944275,128.063187 
	C568.469971,127.781075 564.921753,127.698402 561.466614,128.079468 
	C557.521973,128.514542 556.385132,126.924431 557.000000,122.871384 
z"/>
<path fill="#FF4E9F" opacity="1.000000" stroke="none" 
	d="
M459.007812,62.048660 
	C462.482086,65.965103 463.463776,70.694405 464.851898,75.125900 
	C465.748871,77.989342 465.295044,80.829437 460.850433,80.045692 
	C459.235809,79.760971 457.515564,79.863953 455.866364,80.024605 
	C450.130737,80.583282 446.024323,80.085770 444.016083,72.891861 
	C442.106781,66.052414 435.162598,63.244514 428.393311,63.185505 
	C421.402649,63.124569 414.601501,65.482574 411.068298,72.179276 
	C405.017731,83.647385 404.989929,95.350708 412.211395,106.383430 
	C416.256744,112.563797 422.884644,114.714066 429.857697,113.814323 
	C437.594055,112.816078 443.731659,108.584091 445.799408,100.655045 
	C446.585602,97.640266 447.627899,96.883713 450.340607,96.969696 
	C454.165924,97.090942 458.009796,97.184631 461.823212,96.939705 
	C464.624268,96.759781 465.359039,97.941521 464.995636,100.379593 
	C463.804138,108.373329 459.977142,115.184822 454.445251,120.759064 
	C447.359314,127.899330 437.907135,130.859924 428.278320,130.699188 
	C408.524109,130.369431 392.799805,119.860855 388.870911,96.906937 
	C386.871033,85.222977 388.461151,74.309921 394.403442,64.439957 
	C400.673676,54.025280 410.003571,47.419979 422.756622,47.007908 
	C431.134979,46.737186 439.449402,46.748787 447.135742,50.989250 
	C451.947723,53.643944 455.594757,57.476009 459.007812,62.048660 
z"/>
<path fill="#FF4E9F" opacity="1.000000" stroke="none" 
	d="
M341.038422,127.999954 
	C332.999939,127.999550 332.999847,127.999550 332.999847,120.452110 
	C332.999817,98.128563 333.107819,75.803993 332.897247,53.482430 
	C332.860718,49.609562 333.989594,48.620651 337.625305,48.935013 
	C342.227173,49.332905 348.332367,47.526913 351.093903,49.860710 
	C353.997284,52.314377 351.758392,58.605568 351.980682,63.213131 
	C352.092834,65.537331 352.000275,67.871407 352.000275,71.393219 
	C353.638672,67.490997 354.572998,64.485863 356.084503,61.806305 
	C361.449432,52.295502 371.584961,47.575977 382.740662,48.948860 
	C384.453583,49.159660 385.048828,49.653923 385.017883,51.334843 
	C384.944275,55.331699 384.881134,59.335506 385.041687,63.327339 
	C385.135254,65.654358 384.068085,65.894386 382.088318,66.066948 
	C376.735809,66.533516 371.366699,67.084831 366.088531,68.059433 
	C359.215302,69.328568 354.282776,75.196999 352.920135,82.123596 
	C351.983429,86.884827 352.023285,91.618790 352.008240,96.387405 
	C351.980408,105.216782 351.777710,114.054436 352.099731,122.872139 
	C352.247650,126.923302 351.326996,128.744659 347.016022,128.047836 
	C345.230164,127.759163 343.358704,127.999954 341.038422,127.999954 
z"/>
<path fill="#FF4E9F" opacity="1.000000" stroke="none" 
	d="
M693.270996,117.210716 
	C693.146606,113.641838 691.858459,112.486870 688.670776,114.137695 
	C687.659180,114.661568 686.587646,115.016182 685.223389,114.096588 
	C684.848022,109.602493 689.042542,109.676270 691.490967,107.511734 
	C692.515137,106.894203 693.295166,106.526558 694.151123,105.694038 
	C694.735962,105.206406 695.113647,104.991745 695.843567,104.768547 
	C699.639465,106.133698 700.358643,108.468277 698.179810,111.858391 
	C695.859131,112.952766 694.913025,114.590279 694.421204,116.892029 
	C693.923584,117.168839 693.732788,117.295135 693.270996,117.210716 
z"/>
<path fill="#FF4E9F" opacity="1.000000" stroke="none" 
	d="
M528.518799,101.866989 
	C531.083008,105.300049 527.376038,108.105934 528.039917,111.710693 
	C527.515625,114.614487 526.281067,116.764069 524.431763,118.903946 
	C522.815552,117.775902 523.244141,116.393265 523.967407,115.097733 
	C525.068481,113.125244 523.935120,112.172935 522.190918,111.104774 
	C521.502625,106.129036 524.672241,103.845146 528.518799,101.866989 
z"/>
<path fill="#FF4F9F" opacity="1.000000" stroke="none" 
	d="
M472.561340,74.134109 
	C476.192108,74.976242 479.373871,76.318550 483.019745,76.060860 
	C486.332306,75.826721 489.209290,75.119926 491.519714,72.132736 
	C491.904144,76.819473 489.777069,78.840851 484.803314,78.075897 
	C482.048218,77.652184 479.174622,78.003937 476.354431,77.997200 
	C473.891113,77.991325 472.380798,76.910469 472.561340,74.134109 
z"/>
<path fill="#FF4E9F" opacity="1.000000" stroke="none" 
	d="
M692.700317,117.150757 
	C693.185730,117.006866 693.371521,117.013733 693.835815,117.031570 
	C690.822693,123.980904 684.542236,126.823547 677.379517,128.905487 
	C678.129089,125.634727 681.698181,126.233070 683.767456,124.485237 
	C686.627380,122.069603 689.521301,119.694160 692.700317,117.150757 
z"/>
<path fill="#FF4E9F" opacity="1.000000" stroke="none" 
	d="
M168.950043,103.412102 
	C173.882126,104.169907 176.866837,108.806862 176.093735,114.779297 
	C174.303879,110.915085 171.813309,107.240517 168.950043,103.412102 
z"/>
<path fill="#FF4F9F" opacity="1.000000" stroke="none" 
	d="
M121.719543,97.387390 
	C124.319366,97.350723 126.276344,96.008720 128.747482,95.109344 
	C128.810593,97.921738 126.107521,98.933701 124.239929,100.868179 
	C123.897285,100.873383 123.988091,100.948349 124.036682,100.981613 
	C123.433922,100.540436 122.684868,100.173935 122.117020,99.160049 
	C121.930702,98.918594 121.998085,99.004486 122.032120,99.047165 
	C121.663925,98.723862 121.492172,98.270569 121.719543,97.387390 
z"/>
<path fill="#FF4E9F" opacity="1.000000" stroke="none" 
	d="
M163.949371,97.401016 
	C167.422104,97.046379 169.000015,98.899704 168.946732,102.704422 
	C167.076950,101.509491 164.947708,100.170273 163.949371,97.401016 
z"/>
<path fill="#FF4E9F" opacity="1.000000" stroke="none" 
	d="
M158.949371,91.401016 
	C162.422104,91.046379 164.000015,92.899704 163.946732,96.704422 
	C162.076950,95.509491 159.947708,94.170273 158.949371,91.401016 
z"/>
<path fill="#FF4E9F" opacity="1.000000" stroke="none" 
	d="
M148.949371,79.401024 
	C152.422119,79.046364 154.000015,80.899704 153.946732,84.704422 
	C152.076950,83.509499 149.947739,82.170250 148.949371,79.401024 
z"/>
<path fill="#FF4E9F" opacity="1.000000" stroke="none" 
	d="
M153.949371,85.401016 
	C157.422104,85.046379 159.000015,86.899704 158.946732,90.704422 
	C157.076950,89.509491 154.947708,88.170273 153.949371,85.401016 
z"/>
<path fill="#FF4E9F" opacity="1.000000" stroke="none" 
	d="
M146.582733,74.103928 
	C148.636459,74.918076 149.045792,76.512291 148.947815,78.718513 
	C147.053680,78.028976 146.267059,76.359344 146.582733,74.103928 
z"/>
<path fill="#FF4E9F" opacity="1.000000" stroke="none" 
	d="
M105.345108,123.985962 
	C105.088051,122.665276 104.811218,121.100090 106.780472,120.091080 
	C109.434357,122.317551 106.102524,122.545120 105.345108,123.985962 
z"/>
<path fill="#FF4E9F" opacity="1.000000" stroke="none" 
	d="
M69.906021,52.573448 
	C68.412308,52.698704 68.056686,51.371597 67.112579,50.175278 
	C67.476494,48.800293 68.601318,48.803604 69.653107,48.651680 
	C69.761627,49.816700 69.870140,50.981716 69.906021,52.573448 
z"/>
<path fill="#FF4E9F" opacity="1.000000" stroke="none" 
	d="
M94.803818,104.508072 
	C94.522041,105.973747 93.710945,106.702225 92.172928,106.922791 
	C92.078148,105.332306 92.540466,103.970688 94.803818,104.508072 
z"/>
<path fill="#FF4E9F" opacity="1.000000" stroke="none" 
	d="
M175.575607,121.112778 
	C176.830414,121.962204 177.134171,122.929489 175.441330,123.896545 
	C175.199280,123.089653 175.231903,122.179398 175.575607,121.112778 
z"/>
<path fill="#FF4E9F" opacity="1.000000" stroke="none" 
	d="
M150.164673,46.820896 
	C149.840912,47.635204 149.342606,48.167694 148.505478,48.850113 
	C148.392120,47.896408 146.713669,45.382050 150.164673,46.820896 
z"/>
<path fill="#000000" opacity="1.000000" stroke="none" 
	d="
M110.838455,85.817688 
	C104.739105,78.364182 96.960815,72.672775 93.856201,63.477730 
	C91.402481,56.210453 93.681068,50.200771 99.126007,45.488113 
	C103.927254,41.332588 109.885941,40.627365 115.680397,42.999004 
	C122.262032,45.692825 125.581779,50.926651 126.077278,58.192036 
	C126.488144,64.216408 123.287086,68.346016 119.917389,72.620293 
	C116.903290,76.443512 112.940628,79.546577 111.050346,84.567207 
	C111.169838,85.263992 111.259209,85.602150 110.838455,85.817688 
z"/>
<path fill="#000000" opacity="1.000000" stroke="none" 
	d="
M102.309448,110.768425 
	C100.881493,112.659943 100.638916,110.870865 99.986969,109.420395 
	C100.634880,109.462173 101.339546,110.007706 102.309448,110.768425 
z"/>
<path fill="#000000" opacity="1.000000" stroke="none" 
	d="
M106.990219,116.713608 
	C105.402916,118.269341 105.380920,116.736275 104.972549,115.350143 
	C105.585541,115.416496 106.240379,115.914299 106.990219,116.713608 
z"/>
<path fill="#000000" opacity="1.000000" stroke="none" 
	d="
M121.972549,99.350082 
	C122.585602,99.416428 123.240509,99.914261 123.990341,100.713478 
	C122.402878,102.269630 122.380852,100.736435 121.972549,99.350082 
z"/>
<path fill="#000000" opacity="1.000000" stroke="none" 
	d="
M100.031715,108.721947 
	C99.027321,108.687210 98.315331,107.986389 98.536819,106.650322 
	C99.344063,107.066833 99.671753,107.708138 100.031715,108.721947 
z"/>
<path fill="#000000" opacity="1.000000" stroke="none" 
	d="
M110.890472,85.116226 
	C111.918327,85.253593 112.220276,85.803139 111.694496,86.598442 
	C111.665955,86.641617 111.054085,86.299156 110.521034,85.915634 
	C110.452377,85.565590 110.576431,85.436104 110.890472,85.116226 
z"/>
<path fill="#000000" opacity="1.000000" stroke="none" 
	d="
M105.031723,114.721954 
	C104.027283,114.687241 103.315285,113.986420 103.536812,112.650322 
	C104.344070,113.066833 104.671761,113.708145 105.031723,114.721954 
z"/>
<path fill="#000000" opacity="1.000000" stroke="none" 
	d="
M113.445511,88.584839 
	C113.973892,88.852936 114.985664,89.308861 114.089928,89.795479 
	C113.251915,90.250748 113.154198,89.413818 113.445511,88.584839 
z"/>
<path fill="#000000" opacity="1.000000" stroke="none" 
	d="
M116.554474,92.415207 
	C116.026070,92.147118 115.014244,91.691223 115.910004,91.204544 
	C116.748039,90.749229 116.845772,91.586189 116.554474,92.415207 
z"/>
<path fill="#000000" opacity="1.000000" stroke="none" 
	d="
M118.494400,95.800560 
	C118.252586,95.106140 117.924179,94.127411 118.967506,94.677452 
	C119.532379,94.975258 119.727478,95.660965 118.494400,95.800560 
z"/>
<path fill="#000000" opacity="1.000000" stroke="none" 
	d="
M121.462891,96.932281 
	C121.927681,97.499001 121.967194,97.953163 122.036423,98.748581 
	C121.123268,98.604996 119.885651,98.253693 121.462891,96.932281 
z"/>
<path fill="#000000" opacity="1.000000" stroke="none" 
	d="
M292.317841,113.916908 
	C286.652466,115.504036 281.191040,115.117554 275.788544,114.953651 
	C267.370514,114.698265 262.576752,106.940468 266.887024,100.588051 
	C269.353333,96.953262 273.474030,96.163933 277.503693,96.057175 
	C284.972839,95.859306 292.451019,95.996094 299.925415,96.001778 
	C305.336914,96.005890 306.669891,98.097290 304.220856,103.196365 
	C303.184418,105.354301 301.581085,107.239983 300.096619,109.567307 
	C298.051880,112.171379 295.946259,114.099838 292.317841,113.916908 
z"/>
<path fill="#FF4E9F" opacity="1.000000" stroke="none" 
	d="
M292.227509,114.109787 
	C294.383728,112.589439 296.811005,111.292206 299.598083,109.940079 
	C298.846527,113.673965 296.513184,115.413269 292.227509,114.109787 
z"/>
<path fill="#000000" opacity="1.000000" stroke="none" 
	d="
M528.933838,101.517838 
	C526.993408,104.994957 524.997253,107.944344 522.090393,110.573532 
	C514.987244,114.618675 507.503662,115.529091 499.723114,115.015884 
	C492.609100,114.546631 488.336182,110.239319 489.003662,104.022507 
	C489.508545,99.320259 493.220795,96.339989 500.190338,96.082230 
	C508.968018,95.757591 517.766846,96.014320 526.556580,96.000038 
	C530.962830,95.992867 528.264282,99.342819 528.933838,101.517838 
z"/>
<path fill="#000000" opacity="1.000000" stroke="none" 
	d="
M693.393250,108.795601 
	C690.850830,110.997810 687.981995,111.969040 685.121826,113.565887 
	C678.181946,114.861984 671.434998,115.986115 664.593201,114.040398 
	C659.429932,112.572037 657.737122,109.171410 657.954346,104.114197 
	C658.161865,99.284958 661.361206,97.833549 665.249939,97.004242 
	C675.381653,94.843513 685.647461,96.553246 695.834656,95.986610 
	C698.157104,95.857430 698.226379,97.320686 697.955444,98.844330 
	C697.646851,100.579765 697.037292,102.261681 696.362549,104.337814 
	C696.028992,104.950089 695.972534,105.209099 695.977051,105.686035 
	C695.357849,106.943245 694.886902,108.110855 693.393250,108.795601 
z"/>
<path fill="#FF4E9F" opacity="1.000000" stroke="none" 
	d="
M693.510864,108.961227 
	C693.261780,107.550583 694.695801,107.127876 695.665161,106.005508 
	C695.947754,107.376892 695.651428,108.668678 693.510864,108.961227 
z"/>
</svg>